<svg xmlns="http://www.w3.org/2000/svg"  viewBox="0 0 64 64" width="64px" height="64px" baseProfile="basic"><linearGradient id="BXzp6NlTJcA9ASq1dUPk7a" x1="29.561" x2="29.561" y1="16" y2="44" gradientUnits="userSpaceOnUse"><stop offset="0" stop-color="#6dc7ff"/><stop offset="1" stop-color="#e6abff"/></linearGradient><path fill="url(#BXzp6NlTJcA9ASq1dUPk7a)" d="M48.042,16c0.68,0,1.161,0.664,0.951,1.31L40.69,42.78C40.55,43.21,39.54,44,38.47,44H11.08	c-0.68,0-1.16-0.66-0.95-1.31l8.25-25.31c0.268-0.823,1.036-1.38,1.902-1.38H48.042z"/><linearGradient id="BXzp6NlTJcA9ASq1dUPk7b" x1="29.858" x2="29.858" y1="5" y2="58" gradientUnits="userSpaceOnUse"><stop offset="0" stop-color="#1a6dff"/><stop offset="1" stop-color="#c822ff"/></linearGradient><path fill="url(#BXzp6NlTJcA9ASq1dUPk7b)" d="M53.066,11.064C52.525,10.318,51.811,9.761,51,9.412V8c0-1.654-1.346-3-3-3s-3,1.346-3,3v1h-2	V8c0-1.654-1.346-3-3-3s-3,1.346-3,3v1h-2V8c0-1.654-1.346-3-3-3s-3,1.346-3,3v1h-2V8c0-1.654-1.346-3-3-3s-3,1.346-3,3v1.021	c-2.496,0.108-4.666,1.727-5.446,4.12L5.896,42.76C5.494,43.992,5.7,45.3,6.461,46.349C7.223,47.398,8.402,48,9.698,48H16v5	c0,2.76,2.24,5,5,5h28c2.76,0,5-2.24,5-5V14.435C54.109,13.247,53.79,12.062,53.066,11.064z M47,8c0-0.551,0.448-1,1-1s1,0.449,1,1	v1h-2V8z M39,8c0-0.551,0.448-1,1-1s1,0.449,1,1v1h-2V8z M31,8c0-0.551,0.448-1,1-1s1,0.449,1,1v1h-2V8z M24,7c0.552,0,1,0.449,1,1	v1h-2V8C23,7.449,23.448,7,24,7z M8.08,45.175c-0.381-0.525-0.483-1.179-0.282-1.795l9.658-29.62	c0.511-1.567,1.917-2.634,3.544-2.74V14h2v-3h6v3h2v-3h6v3h2v-3h6v3h2v-3h2.019c0.973,0,1.857,0.451,2.429,1.238	c0.57,0.787,0.725,1.768,0.423,2.691l-9.281,28.472C42.133,44.81,40.246,46,38.47,46H9.698C9.05,46,8.46,45.699,8.08,45.175z M49,56	H21c-1.65,0-3-1.35-3-3v-5h20.47c1.786,0,3.553-0.802,4.748-2H48v-2h-3.502l1.304-4H48v-2h-1.546L52,20.984V53	C52,54.65,50.65,56,49,56z M22,50h26v2H22V50z"/></svg>